HIERARCHY
ROOT Hips
{
	OFFSET 0.000000 0.000000 0.000000
	CHANNELS 6 Xposition Yposition Zposition Xrotation Yrotation Zrotation
	JOINT LeftUpLeg_virtual
	{
		OFFSET 0.000000 0.000000 0.000000
		CHANNELS 3 Xrotation Yrotation Zrotation
		JOINT LeftUpLeg
		{
			OFFSET 13.026900 -6.336304 -1.092800
			CHANNELS 3 Xrotation Yrotation Zrotation
			JOINT LeftLeg
			{
				OFFSET 0.524474 -46.096886 9.782700
				CHANNELS 3 Xrotation Yrotation Zrotation
				JOINT LeftFoot
				{
					OFFSET -0.524474 -53.427422 -12.948200
					CHANNELS 3 Xrotation Yrotation Zrotation
					JOINT LeftToeBase
					{
						OFFSET 0.192200 -14.009700 16.364100
						CHANNELS 3 Xrotation Yrotation Zrotation
						JOINT LeftToe_End
						{
							OFFSET -1.784700 -0.561700 9.474800
							CHANNELS 3 Xrotation Yrotation Zrotation
							End Site
							{
								OFFSET 0 0 0
							}
						}
					}
				}
			}
		}
	}
	JOINT RightUpLeg_virtual
	{
		OFFSET 0.000000 0.000000 0.000000
		CHANNELS 3 Xrotation Yrotation Zrotation
		JOINT RightUpLeg
		{
			OFFSET -12.883000 -6.336304 -1.092800
			CHANNELS 3 Xrotation Yrotation Zrotation
			JOINT RightLeg
			{
				OFFSET -0.524587 -46.096825 9.782800
				CHANNELS 3 Xrotation Yrotation Zrotation
				JOINT RightFoot
				{
					OFFSET 0.524587 -53.427383 -12.948300
					CHANNELS 3 Xrotation Yrotation Zrotation
					JOINT RightToeBase
					{
						OFFSET -0.192200 -14.009700 16.364100
						CHANNELS 3 Xrotation Yrotation Zrotation
						JOINT RightToe_End
						{
							OFFSET 1.784700 -0.561700 9.474800
							CHANNELS 3 Xrotation Yrotation Zrotation
							End Site
							{
								OFFSET 0 0 0
							}
						}
					}
				}
			}
		}
	}
	JOINT Spine_virtual
	{
		OFFSET 0.000000 0.000000 0.000000
		CHANNELS 3 Xrotation Yrotation Zrotation
		JOINT Spine
		{
			OFFSET 0.072000 7.257294 -0.789700
			CHANNELS 3 Xrotation Yrotation Zrotation
			JOINT Spine1
			{
				OFFSET 0.000000 12.508769 -0.658067
				CHANNELS 3 Xrotation Yrotation Zrotation
				JOINT Spine1_split
				{
					OFFSET 0.000000 12.508769 -0.658067
					CHANNELS 3 Xrotation Yrotation Zrotation
					JOINT Spine2
					{
						OFFSET 0.000000 12.508769 -0.658067
						CHANNELS 3 Xrotation Yrotation Zrotation
						JOINT Neck_virtual
						{
							OFFSET 0.000000 0.000000 0.000000
							CHANNELS 3 Xrotation Yrotation Zrotation
							JOINT Neck
							{
								OFFSET 0.000000 14.033295 7.520400
								CHANNELS 3 Xrotation Yrotation Zrotation
								JOINT Head
								{
									OFFSET 0.000000 8.198502 5.703100
									CHANNELS 3 Xrotation Yrotation Zrotation
									JOINT HeadTop_End
									{
										OFFSET 0.000000 17.760803 13.332701
										CHANNELS 3 Xrotation Yrotation Zrotation
										End Site
										{
											OFFSET 0 0 0
										}
									}
								}
							}
						}
						JOINT LeftShoulder_virtual
						{
							OFFSET 0.000000 0.000000 0.000000
							CHANNELS 3 Xrotation Yrotation Zrotation
							JOINT LeftShoulder
							{
								OFFSET 6.292450 5.785301 -0.669000
								CHANNELS 3 Xrotation Yrotation Zrotation
								JOINT LeftShoulder_split
								{
									OFFSET 6.292450 5.785301 -0.669000
									CHANNELS 3 Xrotation Yrotation Zrotation
									JOINT LeftArm
									{
										OFFSET 13.907140 -6.093903 1.965100
										CHANNELS 3 Xrotation Yrotation Zrotation
										JOINT LeftForeArm
										{
											OFFSET 34.140198 0.000000 0.000000
											CHANNELS 3 Xrotation Yrotation Zrotation
											JOINT LeftHand
											{
												OFFSET 40.960209 0.000000 0.000000
												CHANNELS 3 Xrotation Yrotation Zrotation
												End Site
												{
													OFFSET 0 0 0
												}
											}
										}
									}
								}
							}
						}
						JOINT RightShoulder_virtual
						{
							OFFSET 0.000000 0.000000 0.000000
							CHANNELS 3 Xrotation Yrotation Zrotation
							JOINT RightShoulder
							{
								OFFSET -6.292450 5.785301 -0.669000
								CHANNELS 3 Xrotation Yrotation Zrotation
								JOINT RightShoulder_split
								{
									OFFSET -6.292450 5.785301 -0.669000
									CHANNELS 3 Xrotation Yrotation Zrotation
									JOINT RightArm
									{
										OFFSET -13.907140 -6.093903 1.965100
										CHANNELS 3 Xrotation Yrotation Zrotation
										JOINT RightForeArm
										{
											OFFSET -34.140198 0.000000 0.000000
											CHANNELS 3 Xrotation Yrotation Zrotation
											JOINT RightHand
											{
												OFFSET -40.960209 0.000000 0.000000
												CHANNELS 3 Xrotation Yrotation Zrotation
												End Site
												{
													OFFSET 0 0 0
												}
											}
										}
									}
								}
							}
						}
					}
				}
			}
		}
	}
}
MOTION
Frames: 6
Frame Time: 0.03333333
4.911070 88.322609 1.829578 0.000000 0.000000 0.000000 25.137958 -15.969677 9.587205 -71.760057 -1.146817 22.883171 54.099623 -11.038326 4.891657 5.104459 6.006750 -18.598866 0.985944 -2.447620 -0.259357 0.000000 0.000000 0.000000 24.482485 -16.005442 9.366961 -61.978393 -4.500101 -23.393343 61.235726 12.247110 -9.410270 -8.378185 -13.315682 30.522292 -0.529952 4.613058 -9.304395 0.000000 0.000000 0.000000 24.454191 -8.470385 7.011175 13.880154 2.089397 0.053255 8.801269 -2.769454 0.577731 0.077901 -0.187467 0.043457 0.000000 0.000000 0.000000 9.113897 -0.351760 1.093539 -11.583615 1.210482 -15.520761 -37.242450 9.199736 -5.245185 0.000000 0.000000 0.000000 7.553817 -2.137482 -0.759381 4.279978 -7.359260 3.914990 0.173488 -4.058308 1.388469 -51.397744 6.235633 -57.098022 -38.477645 -69.580940 -32.870562 0.000000 0.000000 0.000000 10.664321 -0.594246 1.427718 1.744855 10.728893 -10.181592 6.654040 2.823927 4.941155 -41.635655 -0.327754 55.874339 -50.486002 69.243228 47.508976 0.000000 0.000000 0.000000 
4.841713 88.277931 1.966717 0.000000 0.000000 0.000000 24.595489 -16.098590 9.518088 -71.129713 -0.738987 22.452444 54.033121 -10.948101 5.139454 4.363040 6.371339 -18.318347 1.477326 -2.297116 -0.542213 0.000000 0.000000 0.000000 23.984083 -16.294185 9.355264 -61.793042 -4.879587 -23.673058 61.407096 12.063773 -8.995742 -9.079948 -13.374138 29.297403 0.411942 4.492947 -9.688819 0.000000 0.000000 0.000000 23.725012 -8.332027 7.011347 14.107051 1.810896 -0.219356 8.542873 -2.766716 0.699466 0.050460 -0.165913 0.036836 0.000000 0.000000 0.000000 9.236437 -0.364481 1.191513 -11.674233 0.564326 -15.834429 -38.205059 8.519120 -3.073758 0.000000 0.000000 0.000000 7.606532 -2.130228 -0.598610 4.587339 -7.501780 3.219455 -0.205481 -4.268469 1.560282 -49.935752 7.127719 -58.474513 -38.517636 -70.484670 -32.685204 0.000000 0.000000 0.000000 10.664303 -0.650061 1.506730 1.459322 10.353272 -9.598126 7.689041 3.663629 4.491125 -39.117016 0.052797 56.486013 -54.475625 70.768485 51.900354 0.000000 0.000000 0.000000 
4.716188 87.923058 2.025845 0.000000 0.000000 0.000000 24.214634 -16.224290 9.522331 -70.730543 -0.557005 22.150194 54.389213 -11.027175 5.329042 3.636058 6.820542 -18.247733 1.893312 -2.154034 -0.728714 0.000000 0.000000 0.000000 23.647493 -16.387067 9.392968 -61.866522 -5.018113 -23.834102 61.917133 11.836827 -8.647247 -9.888230 -13.459442 28.097279 1.277855 4.313374 -9.945625 0.000000 0.000000 0.000000 23.228065 -8.333676 7.109401 14.371408 1.541417 -0.480163 8.345478 -2.803733 0.851787 0.051986 -0.121482 0.011663 0.000000 0.000000 0.000000 9.408789 -0.409797 1.278061 -11.838493 -0.003637 -16.186191 -39.522579 8.224218 -0.931797 0.000000 0.000000 0.000000 7.712594 -2.168846 -0.411826 4.916617 -7.749775 2.910828 -0.638717 -4.597510 1.545692 -48.242705 8.081906 -59.666661 -38.676670 -72.086739 -32.743715 0.000000 0.000000 0.000000 10.686056 -0.773478 1.585024 1.298004 9.945221 -9.328003 8.928663 4.222990 4.007405 -36.963102 0.192811 56.968391 -59.658936 72.405483 57.509319 0.000000 0.000000 0.000000 
4.559769 87.332146 2.072338 0.000000 0.000000 0.000000 23.991593 -16.393566 9.587134 -70.473229 -0.512372 21.984991 55.006249 -11.239145 5.480528 2.875107 7.305038 -18.292843 2.156681 -2.038067 -0.755982 0.000000 0.000000 0.000000 23.515409 -16.380807 9.482015 -62.169072 -4.946154 -23.880365 62.624338 11.624259 -8.361460 -10.595501 -13.492519 27.123094 1.822947 4.124473 -10.132183 0.000000 0.000000 0.000000 22.979997 -8.480702 7.252433 14.581660 1.253970 -0.696903 8.195739 -2.860747 1.021539 0.061840 -0.053740 -0.001235 0.000000 0.000000 0.000000 9.601491 -0.463371 1.350455 -12.038887 -0.481322 -16.560490 -41.044779 8.220683 1.101083 0.000000 0.000000 0.000000 7.836350 -2.229998 -0.220997 5.248716 -8.124491 2.717455 -1.007575 -4.833296 1.367901 -46.406358 9.094107 -60.516890 -38.740420 -73.993939 -32.776975 0.000000 0.000000 0.000000 10.695196 -0.915379 1.656290 1.245371 9.571661 -9.310579 10.339542 4.593475 3.635243 -35.119340 -0.018055 57.279076 -65.827902 74.017462 64.120996 0.000000 0.000000 0.000000 
4.354388 86.640724 2.094360 0.000000 0.000000 0.000000 23.915257 -16.623374 9.704382 -70.347089 -0.578858 21.921784 55.754872 -11.540476 5.628706 2.116854 7.780619 -18.458086 2.426401 -1.951487 -0.697202 0.000000 0.000000 0.000000 23.516543 -16.482104 9.629540 -62.637616 -4.762972 -23.825937 63.463796 11.391337 -8.118041 -11.152099 -13.532184 26.333839 2.169750 3.941501 -10.278903 0.000000 0.000000 0.000000 22.955542 -8.786371 7.414727 14.693897 0.956335 -0.828620 8.053357 -2.919280 1.193354 0.074071 0.001204 -0.011888 0.000000 0.000000 0.000000 9.763982 -0.505363 1.387359 -12.224830 -0.904788 -16.945880 -42.554951 8.419143 2.946473 0.000000 0.000000 0.000000 7.936772 -2.291658 -0.048269 5.550369 -8.625499 2.384787 -1.331532 -4.805210 1.175330 -44.545333 10.174604 -60.908239 -38.402414 -75.805100 -32.485319 0.000000 0.000000 0.000000 10.680995 -1.026669 1.721506 1.292823 9.279480 -9.436768 11.620088 4.982690 3.433593 -33.578269 -0.507076 57.316243 -71.966432 75.457410 70.707908 0.000000 0.000000 0.000000 
4.120434 85.939819 2.101955 0.000000 0.000000 0.000000 23.902821 -16.814160 9.834275 -70.336195 -0.747862 21.904519 56.486276 -11.924729 5.796774 1.471007 8.177029 -18.806200 2.641910 -1.892445 -0.569509 0.000000 0.000000 0.000000 23.588977 -16.722733 9.818067 -63.167563 -4.537997 -23.705013 64.369096 11.100773 -7.892573 -11.681172 -13.639206 25.588716 2.556706 3.768418 -10.403619 0.000000 0.000000 0.000000 23.013337 -9.157084 7.575638 14.708645 0.701113 -0.847034 7.889266 -2.946468 1.354801 0.071839 0.059627 -0.012892 0.000000 0.000000 0.000000 9.853290 -0.517994 1.397889 -12.380021 -1.302006 -17.311289 -43.801918 8.852244 4.493808 0.000000 0.000000 0.000000 7.987134 -2.337642 0.095021 5.793769 -9.170262 1.811761 -1.241722 -4.564185 1.110252 -42.834029 11.187227 -60.926196 -37.235289 -77.142117 -31.416316 0.000000 0.000000 0.000000 10.618192 -1.087598 1.773640 1.432715 9.088614 -9.555425 12.607313 5.375313 3.493328 -32.383378 -1.105175 57.054401 -76.839895 76.699118 76.009924 0.000000 0.000000 0.000000 
